<mxfile host="app.diagrams.net" modified="2023-06-08T08:12:56.115Z" agent="Mozilla/5.0 (Windows NT 10.0; Win64; x64) AppleWebKit/537.36 (KHTML, like Gecko) Chrome/114.0.0.0 Safari/537.36" etag="tdsSt2jG6lxbZnd2QDAf" version="21.3.7" type="github">
  <diagram name="第 1 页" id="A4eTUSbETIJm_f3Stn6l">
    <mxGraphModel dx="282" dy="579" grid="1" gridSize="10" guides="1" tooltips="1" connect="1" arrows="1" fold="1" page="1" pageScale="1" pageWidth="827" pageHeight="1169" math="0" shadow="0">
      <root>
        <mxCell id="0" />
        <mxCell id="1" parent="0" />
        <mxCell id="1VXBK65PSoSEc3yUhypz-3" value="" style="edgeStyle=orthogonalEdgeStyle;rounded=0;orthogonalLoop=1;jettySize=auto;html=1;" edge="1" parent="1" source="1VXBK65PSoSEc3yUhypz-1" target="1VXBK65PSoSEc3yUhypz-2">
          <mxGeometry relative="1" as="geometry" />
        </mxCell>
        <mxCell id="1VXBK65PSoSEc3yUhypz-1" value="上水" style="rounded=0;whiteSpace=wrap;html=1;" vertex="1" parent="1">
          <mxGeometry x="350" y="110" width="120" height="60" as="geometry" />
        </mxCell>
        <mxCell id="1VXBK65PSoSEc3yUhypz-9" value="" style="edgeStyle=orthogonalEdgeStyle;rounded=0;orthogonalLoop=1;jettySize=auto;html=1;" edge="1" parent="1" source="1VXBK65PSoSEc3yUhypz-2" target="1VXBK65PSoSEc3yUhypz-5">
          <mxGeometry relative="1" as="geometry" />
        </mxCell>
        <mxCell id="1VXBK65PSoSEc3yUhypz-2" value="除气" style="rounded=0;whiteSpace=wrap;html=1;" vertex="1" parent="1">
          <mxGeometry x="350" y="200" width="120" height="60" as="geometry" />
        </mxCell>
        <mxCell id="1VXBK65PSoSEc3yUhypz-10" value="" style="edgeStyle=orthogonalEdgeStyle;rounded=0;orthogonalLoop=1;jettySize=auto;html=1;" edge="1" parent="1" source="1VXBK65PSoSEc3yUhypz-4" target="1VXBK65PSoSEc3yUhypz-6">
          <mxGeometry relative="1" as="geometry" />
        </mxCell>
        <mxCell id="1VXBK65PSoSEc3yUhypz-4" value="快速升高背压" style="rounded=0;whiteSpace=wrap;html=1;" vertex="1" parent="1">
          <mxGeometry x="350" y="280" width="120" height="60" as="geometry" />
        </mxCell>
        <mxCell id="1VXBK65PSoSEc3yUhypz-5" value="调节攻角" style="rounded=0;whiteSpace=wrap;html=1;" vertex="1" parent="1">
          <mxGeometry x="350" y="360" width="120" height="60" as="geometry" />
        </mxCell>
        <mxCell id="1VXBK65PSoSEc3yUhypz-11" value="" style="edgeStyle=orthogonalEdgeStyle;rounded=0;orthogonalLoop=1;jettySize=auto;html=1;" edge="1" parent="1" source="1VXBK65PSoSEc3yUhypz-6" target="1VXBK65PSoSEc3yUhypz-7">
          <mxGeometry relative="1" as="geometry" />
        </mxCell>
        <mxCell id="1VXBK65PSoSEc3yUhypz-6" value="调节循环泵转速" style="rounded=0;whiteSpace=wrap;html=1;" vertex="1" parent="1">
          <mxGeometry x="350" y="440" width="120" height="60" as="geometry" />
        </mxCell>
        <mxCell id="1VXBK65PSoSEc3yUhypz-12" value="" style="edgeStyle=orthogonalEdgeStyle;rounded=0;orthogonalLoop=1;jettySize=auto;html=1;" edge="1" parent="1" source="1VXBK65PSoSEc3yUhypz-7" target="1VXBK65PSoSEc3yUhypz-8">
          <mxGeometry relative="1" as="geometry" />
        </mxCell>
        <mxCell id="1VXBK65PSoSEc3yUhypz-15" style="edgeStyle=orthogonalEdgeStyle;rounded=0;orthogonalLoop=1;jettySize=auto;html=1;entryX=0;entryY=0.5;entryDx=0;entryDy=0;" edge="1" parent="1" source="1VXBK65PSoSEc3yUhypz-7" target="1VXBK65PSoSEc3yUhypz-5">
          <mxGeometry relative="1" as="geometry">
            <Array as="points">
              <mxPoint x="280" y="560" />
              <mxPoint x="280" y="390" />
            </Array>
          </mxGeometry>
        </mxCell>
        <mxCell id="1VXBK65PSoSEc3yUhypz-7" value="是否继续进行实验" style="rhombus;whiteSpace=wrap;html=1;" vertex="1" parent="1">
          <mxGeometry x="325" y="520" width="170" height="80" as="geometry" />
        </mxCell>
        <mxCell id="1VXBK65PSoSEc3yUhypz-8" value="停止运行循环泵&lt;br&gt;恢复背压至1 atm&lt;br&gt;排出实验用水" style="rounded=1;whiteSpace=wrap;html=1;" vertex="1" parent="1">
          <mxGeometry x="350" y="630" width="120" height="60" as="geometry" />
        </mxCell>
        <mxCell id="1VXBK65PSoSEc3yUhypz-16" value="否" style="text;html=1;strokeColor=none;fillColor=none;align=center;verticalAlign=middle;whiteSpace=wrap;rounded=0;" vertex="1" parent="1">
          <mxGeometry x="400" y="600" width="60" height="30" as="geometry" />
        </mxCell>
        <mxCell id="1VXBK65PSoSEc3yUhypz-17" value="是" style="text;html=1;strokeColor=none;fillColor=none;align=center;verticalAlign=middle;whiteSpace=wrap;rounded=0;" vertex="1" parent="1">
          <mxGeometry x="265" y="455" width="60" height="30" as="geometry" />
        </mxCell>
      </root>
    </mxGraphModel>
  </diagram>
</mxfile>
